<svg width="20" height="20" viewBox="0 0 20 20" fill="none" xmlns="http://www.w3.org/2000/svg">
<path d="M15.7892 4.17751C15.6167 3.67251 15.1408 3.33334 14.6075 3.33334H5.3925C4.85917 3.33334 4.38333 3.67251 4.21083 4.17751L2.5 9.16668V15.8333C2.5 16.2933 2.87333 16.6667 3.33333 16.6667H4.16667C4.62667 16.6667 5 16.2933 5 15.8333V15H15V15.8333C15 16.2933 15.3733 16.6667 15.8333 16.6667H16.6667C17.1267 16.6667 17.5 16.2933 17.5 15.8333V9.16668L15.7892 4.17751ZM5.69083 5.00001H14.31L15.4525 8.33334H4.5475L5.69083 5.00001ZM5.41667 12.5C4.72667 12.5 4.16667 11.94 4.16667 11.25C4.16667 10.56 4.72667 10 5.41667 10C6.10667 10 6.66667 10.56 6.66667 11.25C6.66667 11.94 6.10667 12.5 5.41667 12.5ZM14.5833 12.5C13.8933 12.5 13.3333 11.94 13.3333 11.25C13.3333 10.56 13.8933 10 14.5833 10C15.2733 10 15.8333 10.56 15.8333 11.25C15.8333 11.94 15.2733 12.5 14.5833 12.5Z" fill="#0071E3"/>
</svg>
