<svg width="20" height="20" viewBox="0 0 20 20" fill="none" xmlns="http://www.w3.org/2000/svg">
<path d="M5.55556 1.66504C5.13389 1.66504 4.79167 2.00726 4.79167 2.42893V3.19282H4.02778C3.18368 3.19282 2.5 3.8765 2.5 4.72059V6.24837V7.01226V15.415C2.5 16.2576 3.18521 16.9428 4.02778 16.9428H14.7222C15.5648 16.9428 16.25 16.2576 16.25 15.415V7.01226V6.24837V4.72059C16.25 3.8765 15.5663 3.19282 14.7222 3.19282H13.9583V2.42893C13.9583 2.00726 13.6161 1.66504 13.1944 1.66504C12.7728 1.66504 12.4306 2.00726 12.4306 2.42893V3.19282H6.31944V2.42893C6.31944 2.00726 5.97722 1.66504 5.55556 1.66504ZM4.02778 7.01226H14.7222L14.7237 15.415H4.02778V7.01226ZM11.5145 9.08162C11.321 9.08162 11.1267 9.15611 10.9789 9.30393L8.99306 11.2897L8.15308 10.4498C7.85745 10.1541 7.37896 10.1541 7.08333 10.4498C6.78771 10.7454 6.78771 11.2239 7.08333 11.5195L8.45296 12.8891C8.75088 13.187 9.23523 13.187 9.53315 12.8891L12.0486 10.3737C12.3442 10.078 12.3442 9.59955 12.0486 9.30393C11.9008 9.15611 11.7079 9.08162 11.5145 9.08162Z" fill="#0071E3"/>
</svg>
