<svg width="20" height="20" viewBox="0 0 20 20" fill="none" xmlns="http://www.w3.org/2000/svg">
<path d="M10 2.5C5.86437 2.5 2.5 5.86437 2.5 10C2.5 14.1356 5.86437 17.5 10 17.5C14.1356 17.5 17.5 14.1356 17.5 10C17.5 5.86437 14.1356 2.5 10 2.5ZM10 3.76099V3.76221C10.9019 3.76283 11.7598 3.94637 12.5342 4.29199C13.1011 4.70637 13.3173 5.78655 13.9136 6.34155C14.5223 6.90843 15.1727 7.08409 15.8008 7.69409C15.8008 7.69409 15.802 7.69228 15.8032 7.69165C15.922 7.98853 16.0188 8.297 16.0913 8.6145C16.1651 8.93763 15.886 9.23389 15.5579 9.18701L12.8857 8.80615C12.4151 7.67428 11.3 6.875 10 6.875C8.7 6.875 7.58488 7.67368 7.11426 8.80493L4.44214 9.18701C4.11401 9.23389 3.83494 8.93641 3.90869 8.61328C3.98119 8.29641 4.07803 7.98915 4.19678 7.69165C4.19678 7.69165 4.19797 7.69347 4.19922 7.69409C4.82734 7.08409 5.47768 6.90905 6.08643 6.34155C6.68268 5.78655 6.89895 4.70574 7.46582 4.29199C8.24082 3.94637 9.09875 3.76161 10 3.76099ZM10 8.125C11.0337 8.125 11.875 8.96625 11.875 10C11.875 11.0337 11.0337 11.875 10 11.875C8.96625 11.875 8.125 11.0337 8.125 10C8.125 8.96625 8.96625 8.125 10 8.125ZM10 9.375C9.655 9.375 9.375 9.655 9.375 10C9.375 10.345 9.655 10.625 10 10.625C10.345 10.625 10.625 10.345 10.625 10C10.625 9.655 10.345 9.375 10 9.375ZM14.906 11.4954C15.4885 11.4229 15.9419 12.0144 15.7019 12.55C15.0719 13.9538 13.9398 15.0836 12.5342 15.7092C11.8992 15.9924 11.2037 15.4591 11.3318 14.7754L11.7395 12.594C12.0583 12.379 12.3325 12.1039 12.5537 11.7896L14.906 11.4954ZM5.09399 11.4966L7.44629 11.7908C7.66754 12.1051 7.94175 12.379 8.2605 12.594L8.66821 14.7754C8.79634 15.4591 8.10082 15.9936 7.46582 15.7104C6.06082 15.0848 4.9281 13.955 4.2981 12.5513C4.0581 12.015 4.51149 11.4235 5.09399 11.4966Z" fill="#0071E3"/>
</svg>
