<svg width="24" height="24" viewBox="0 0 24 24" fill="none" xmlns="http://www.w3.org/2000/svg">
<path d="M9.3 3C5.83127 3 3 5.83127 3 9.3C3 12.7687 5.83127 15.6 9.3 15.6C10.8732 15.6 12.3105 15.0132 13.4168 14.0531L13.8 14.4363V15.6L19.2 21L21 19.2L15.6 13.8H14.4363L14.0531 13.4168C15.0132 12.3105 15.6 10.8732 15.6 9.3C15.6 5.83127 12.7687 3 9.3 3ZM9.3 4.8C11.7959 4.8 13.8 6.80406 13.8 9.3C13.8 11.7959 11.7959 13.8 9.3 13.8C6.80406 13.8 4.8 11.7959 4.8 9.3C4.8 6.80406 6.80406 4.8 9.3 4.8Z" fill="currentColor"/>
</svg>
